<svg viewBox="0 0 207 124" fill="white" xmlns="http://www.w3.org/2000/svg">
  <path d="M48.942 32.632h-6.796v40.88h6.796V32.632zM82.703 32.437l-16.812 41.215h7.294l3.43-8.893h16.568l3.43 8.893h7.36l-16.896-41.215h-4.374zm-8.164 25.04l6.489-16.855 6.523 16.855h-13.013zM129.632 62.262c-2.14 0-3.906-.888-5.303-2.685-1.393-1.8-2.096-4.38-2.096-7.703s.703-5.91 2.096-7.705c1.397-1.8 3.162-2.687 5.303-2.687 2.13 0 3.896.886 5.288 2.687 1.397 1.796 2.104 4.377 2.104 7.705s-.707 5.902-2.104 7.703c-1.392 1.797-3.157 2.685-5.288 2.685zm-12.236-10.388c0 4.107 1.345 7.51 3.951 10.162 2.603 2.646 6.07 4.014 10.228 4.014s7.618-1.368 10.222-4.014c2.6-2.652 3.951-6.055 3.951-10.162s-1.351-7.51-3.951-10.162c-2.604-2.646-6.07-4.014-10.222-4.014-4.158 0-7.625 1.368-10.228 4.014-2.606 2.652-3.951 6.055-3.951 10.162zm53.224-19.433v40.88h-6.724v-40.88h-6.793v40.88h6.793v-40.88h6.724zM146.007 61.9c.928 0 1.668-.278 2.224-.831.561-.558.839-1.282.839-2.24 0-.955-.278-1.679-.839-2.238-.556-.558-1.296-.835-2.224-.835-.927 0-1.671.277-2.227.835-.56.559-.835 1.283-.835 2.238 0 .958.276 1.682.835 2.24.556.553 1.3.831 2.227.831zm10.992-22.833h-6.727v40.88h6.727v-40.88z" fill="#000"/>
  <path fill-rule="evenodd" clip-rule="evenodd" d="M29.128 0c-1.645 0-3.01.976-3.624 2.48L.179 59.448c-.187.452-.279.933-.279 1.41 0 2.4 2.706 3.932 4.68 2.667l21.372-13.263 21.42 13.263c.468.295.997.45 1.56.45 1.812 0 3.273-1.455 3.273-3.267 0-.485-.106-.963-.311-1.398L32.75 2.48A3.685 3.685 0 0029.128 0zm-5.144 44.09L29.19 16.706l10.121 27.384H23.984z" fill="#000"/>
</svg>
